# xmcd
#
# Track frame offsets: 
#        150
#        31380
#        64825
#        93895
#        110762
#        133837
#        155565
#        188950
#        219687
#        253602
#        273517
#        300855
#
# Disc length: 4281 seconds
#
# Revision: 1
# Processed by: cddbd v1.5.2PL0 Copyright (c) Steve Scherf et al.
# Submitted via: ExactAudioCopy v1.3
#
DISCID=ac10b70c
DTITLE=Various Artist - More Than A Chilling
DYEAR=1994
DGENRE=Ambient
TTITLE0=William Orbit - Water From A Vine Leaf
TTITLE1=Sven Vath - L'esperanza
TTITLE2=Sun Electric - O'Locco
TTITLE3=Electrotete - I Love You
TTITLE4=Art. Indut. - Middle East Nothing
TTITLE5=Aphex Twin - X-Tal
TTITLE6=F.S.O.L - Cascade
TTITLE7=David Morley - Calibaration
TTITLE8=Robert Leiner - Dream Of Reality
TTITLE9=William Orbit - Harry Flowers
TTITLE10=The Grid - Aquarium
TTITLE11=Amorphous Androgynous - Mountain Goat
EXTD=
EXTT0=
EXTT1=Doub mix featuring Patricia
EXTT2=Kama Sutra mix
EXTT3=
EXTT4=
EXTT5=
EXTT6=Part 1
EXTT7=
EXTT8=
EXTT9=
EXTT10=
EXTT11=
PLAYORDER=
